<svg xmlns="http://www.w3.org/2000/svg" viewBox="0 0 84.6 80.5">
<g fill="#f596aa">
<path d="M42.3 37.9S54.9 31 54.9 18.4c0-7.2-3.3-15.8-7.9-18.3l-4.6 4.6L37.6 0c-4.7 2.5-7.9 11.1-7.9 18.3 0 12.6 12.6 19.6 12.6 19.6z"/>
<path d="M47.1 41.4s10.5 9.8 22.5 5.9c6.9-2.2 14-8 15-13.2l-5.9-3 3-5.9c-3.8-3.7-13-4.1-19.9-1.9-11.9 4-14.7 18.1-14.7 18.1z"/>
<path d="M45.3 47.1s-6.1 13 1.3 23.2c4.2 5.8 12 10.9 17.2 10.2l1-6.5 6.5 1c2.3-4.8-.1-13.7-4.3-19.5-7.4-10.2-21.7-8.4-21.7-8.4z"/>
<path d="M39.3 47.1S25 45.3 17.6 55.5C13.4 61.3 11 70.2 13.3 75l6.5-1 1 6.5c5.2.7 13-4.3 17.2-10.2 7.4-10.2 1.3-23.2 1.3-23.2z"/>
<path d="M37.4 41.4s-2.7-14.1-14.7-18c-6.9-2.2-16.1-1.8-19.9 1.9l3 5.9-5.9 3c.9 5.2 8.1 11 15 13.2 12.1 3.8 22.5-6 22.5-6z"/>
</g></svg>
