<svg xmlns="http://www.w3.org/2000/svg" width="800" height="1000" version="1"><defs><clipPath id="a"><path fill="#e47872" fill-opacity="0" fill-rule="evenodd" stroke="#000" stroke-linecap="square" stroke-width="3" d="M1.5 1.5h797v997H1.5z"/></clipPath></defs><path fill="#e47872" fill-rule="evenodd" stroke="#000" stroke-linecap="square" stroke-width="3" d="M92.106 279.812c-2.954-5.89 16.018-27.233 29.92-26.176 20.63 1.567 34.058 17.922 50.671 19.155 8.886.66 29.248-1.327 44.142 2.194 19.736 4.665 39.975 11.805 60.435 17.966 57.621 17.352 92.95 22.61 152.735 26.146 58.9 3.485 91.8 16.227 135.499 17.944 23.336.917 39.593 2.039 57.244 16.444 18.373 14.993 23.723 36.928 21.854 70.245-1.462 26.445-5.768 37.084-12.858 57.51-3.611 10.406-7.509 20.86-8.066 30-.768 12.596-1.253 24.86-9.51 24.669-7.645-.177-12.41-3.113-12.214-14.164.21-11.355 4.977-19.792 3.571-34.704-3.973-42.14-18.57-75.476-31.082-93.643-12.229-17.755-28.91-27.395-48.27-32.122-26.75-6.532-42.515-7.977-70.056-10.036-21.962-1.641-24.582.536-46.725-1.428s-17.5-3.75-42.857-6.429c-25.357-2.678-34.805-4.081-58.571-4.286-12.639-.117-29.107 2.322-36.429 7.858-13.448 10.168-18.546 22.955-27.857 28.571-20.022 12.076-33.47 11.886-55.418 12.857-15.828.7-25.642 3.028-28.215-1.428-1.118-4.965 10.234-25.793-.653-24.643-8.464.894-10.875 31.517-24.704 50.714-10.764 14.944-25.67 14.386-33.867 6.786-11.37-10.543-14.542-22.327-5.714-37.143 6.95-11.666 12.267-29.32 23.571-44.286 12.885-17.06 20.1-37.1 5-50.714-8.914-8.036-26.522 2.223-31.576-7.857z"/><path d="M77.897 671.06h11.016v2.657H74.1v-2.656c1.198-1.24 2.831-2.904 4.899-4.992 2.068-2.089 3.367-3.435 3.898-4.04 1.01-1.135 1.716-2.096 2.117-2.882.401-.787.602-1.56.602-2.32 0-1.24-.435-2.25-1.305-3.032-.87-.781-2.002-1.172-3.398-1.172-.99 0-2.034.172-3.133.516-1.099.344-2.273.865-3.523 1.563v-3.188c1.27-.51 2.458-.896 3.562-1.156 1.104-.26 2.115-.39 3.031-.39 2.417 0 4.344.603 5.782 1.812 1.437 1.208 2.156 2.823 2.156 4.843 0 .959-.18 1.868-.54 2.727-.359.86-1.012 1.872-1.96 3.039-.26.302-1.089 1.175-2.484 2.617-1.396 1.443-3.365 3.461-5.907 6.055z"/><path fill="#e47872" fill-rule="evenodd" stroke="#000" stroke-linecap="square" stroke-width="3" d="M20.1 244.985C9.55 242.327 8.392 220.987 33.58 188.62c49.607-63.75 99.75-168.855 178.99-195.93h601.715c1.54 23.343-2.225 697.848-2.388 922.836-28.066-41.175-43.456-58.632-69.285-130.714-36.287-101.267-71.509-207.584-75.715-315.714-2.442-62.805 7.143-76.213 7.143-125.715 0-63.713-34.11-82.808-68.571-94.286-34.855-11.608-76.85-44.579-79.062-69.061-3.048-33.738 26.666-65.429 9.062-113.796-13.466-28.098-60.87-15.764-97.143-21.428-34.502-5.387-55.233-21.03-74.286-25.715-48.86-12.01-60.818-.156-105.714 8.572-26.484 5.148-67.237 17.052-87.143 34.286-19.077 16.516-31.975 34.012-55.44 54.346-22.744 19.708-40.356 54.932-44.56 65.654-6.56 16.73-17.026 23.765-19.827 48.051-1.428 12.387-22.265 17.244-31.255 14.98zm791.093 692.607s-34.873-55.753-38.63-58.242c-12.446-8.243-16.324-1.356-21.142 11.652-3.882 10.48-5.326 29.536 1.428 39.59 9.952 14.816 21.536 12.825 34.1 24.938 15.291 14.74 24.244 47.794 24.244 47.794v-65.732zm-206.071 78.506c-10.5-17.819-39.706-32.8-49.584-47.436-55.54-82.294-164.472-94.705-256.91-71.721-46.8 11.636-116.463 31.103-149.085 14.142-18.494-9.615-51.936-54.469-51.936-89.904 0-13.637 3.66-27.9 0-49.497-4.851-28.621-32.444-23.307-38.472-38.891-5.324-13.762 1.29-46.436 14.055-50.508 10.076-3.213 22.276.128 26.832 4.255 16.644 15.08 20.785 60.028 39.542 58.375 10.718-.945-10.925-15.676-4.545-25.254 5.713-8.578 11.046-11.81 20.08-11.112 6.535.505 8.501 18.254 21.545 15.99 22.952-3.986 41.535-25.672 39.223-48.06-3.075-29.776-27.343-47.998-56.355-50.257-15.974-1.244-34.527-2.62-34.804-16.163-.535-26.807 52.275-34.936 76.568-34.936 36.762 0 99.934-.547 162.458 4.387 42.756 3.374 89.074 10.615 117.14 36.61 40.447 37.465 43.965 77.742 50.594 128.29 1.415 10.796 5.966 34.7 7.994 48.992 1.447 10.197 16.163 14.142 18.688.505 2.525-13.637.167-30.2-4.04-44.446-2.658-8.998-8.116-16.008-3.919-17.678 4.947-1.969 7.376 1.757 11.494 11.617 12.08 28.917 4.54 66.517 7.071 84.852 2.636 19.091 11.432 32.462 15.029 50.86 3.439 17.592 12.476 32.038 19.822 47.63 12.615 26.776 27.014 40.267 37.375 57.58 7.889 13.18 25.193 31.778 25.193 31.778h-61.053z" clip-path="url(#a)"/><path fill="#fff" fill-opacity=".941" fill-rule="evenodd" stroke="#000" stroke-linecap="square" stroke-width="3" d="M637.253 975.883c-1.642-38.892 83.915-48.447 120-43.571.575 27.54-106.83 53.932-120 43.571z"/><path fill="#fff" fill-rule="evenodd" stroke="#000" stroke-linecap="square" stroke-width="3" d="M152.61 426.24c-10.527-5.684 24.362-69.064 35.715-65 11.08 3.967-22.28 72.254-35.714 65z"/><path d="M179.716 437.913c1.51.323 2.69.995 3.539 2.016.849 1.02 1.273 2.281 1.273 3.781 0 2.302-.792 4.084-2.375 5.344-1.583 1.26-3.833 1.89-6.75 1.89-.98 0-1.987-.096-3.023-.288a21.915 21.915 0 0 1-3.211-.868v-3.047c.875.51 1.833.896 2.875 1.157 1.041.26 2.13.39 3.265.39 1.98 0 3.487-.39 4.524-1.172 1.036-.78 1.554-1.916 1.554-3.406 0-1.375-.481-2.45-1.445-3.226-.963-.776-2.305-1.164-4.023-1.164h-2.72v-2.594h2.845c1.552 0 2.74-.31 3.562-.93.823-.62 1.234-1.513 1.235-2.68 0-1.197-.425-2.117-1.274-2.757-.849-.64-2.065-.961-3.648-.961-.865 0-1.792.093-2.782.281-.99.188-2.078.48-3.265.875v-2.813a30.537 30.537 0 0 1 3.367-.75 18.882 18.882 0 0 1 2.96-.25c2.397 0 4.293.545 5.688 1.633 1.396 1.089 2.094 2.56 2.094 4.414 0 1.292-.37 2.383-1.11 3.274-.739.89-1.79 1.508-3.155 1.851z" font-size="32"/><path d="M66.017 413.755h5.156v-17.797l-5.61 1.125v-2.875l5.579-1.125h3.156v20.672h5.156v2.656H66.017v-2.656zM116.278 453.898h11.016v2.656H112.48v-2.656c1.198-1.24 2.83-2.904 4.899-4.992 2.067-2.089 3.367-3.435 3.898-4.04 1.01-1.135 1.716-2.096 2.117-2.882.401-.787.602-1.56.602-2.32 0-1.24-.435-2.25-1.305-3.032-.87-.781-2.003-1.172-3.398-1.172-.99 0-2.034.172-3.133.516-1.1.344-2.274.864-3.524 1.562v-3.187c1.271-.51 2.459-.896 3.563-1.156 1.104-.26 2.114-.391 3.031-.391 2.417 0 4.344.604 5.781 1.812 1.438 1.209 2.157 2.823 2.157 4.844 0 .959-.18 1.867-.54 2.727-.359.86-1.012 1.872-1.96 3.039-.26.302-1.089 1.174-2.485 2.617s-3.364 3.461-5.906 6.055zM255.017 379.668h12.39v2.656h-9.5v5.72a8.886 8.886 0 0 1 1.376-.352 8.172 8.172 0 0 1 1.375-.118c2.604 0 4.666.714 6.187 2.141 1.52 1.427 2.281 3.36 2.281 5.797 0 2.51-.781 4.46-2.343 5.851-1.563 1.391-3.766 2.086-6.61 2.086-.979 0-1.976-.083-2.992-.25a23.858 23.858 0 0 1-3.148-.75v-3.172c.937.51 1.906.891 2.906 1.141 1 .25 2.057.375 3.172.375 1.802 0 3.229-.474 4.28-1.422 1.053-.948 1.579-2.234 1.579-3.86 0-1.624-.526-2.91-1.578-3.859-1.052-.947-2.48-1.421-4.281-1.421-.844 0-1.685.093-2.524.28-.838.188-1.695.48-2.57.876v-11.719zM225.272 396.58l-7.969 12.454h7.969V396.58zm-.828-2.75h3.968v15.204h3.328v2.625h-3.328v5.5h-3.14v-5.5H214.74v-3.047l9.704-14.781zM308.593 361.81c-1.416 0-2.539.485-3.367 1.454-.828.968-1.242 2.296-1.242 3.984 0 1.677.414 3.003 1.242 3.976.828.974 1.95 1.461 3.367 1.461s2.54-.487 3.368-1.46c.828-.974 1.242-2.3 1.242-3.977 0-1.688-.414-3.016-1.242-3.984-.829-.97-1.951-1.454-3.368-1.454zm6.266-9.89v2.875a12.615 12.615 0 0 0-2.398-.86 10.047 10.047 0 0 0-2.399-.296c-2.083 0-3.674.703-4.773 2.109-1.1 1.406-1.727 3.531-1.883 6.375a6.284 6.284 0 0 1 2.312-2.086c.927-.484 1.948-.727 3.063-.727 2.344 0 4.195.711 5.555 2.133 1.359 1.422 2.039 3.357 2.039 5.805 0 2.396-.709 4.318-2.125 5.766-1.417 1.447-3.303 2.171-5.657 2.171-2.698 0-4.76-1.033-6.187-3.101-1.427-2.068-2.14-5.065-2.14-8.992 0-3.688.874-6.628 2.624-8.82 1.75-2.193 4.1-3.29 7.047-3.29.792 0 1.591.078 2.399.235a17.3 17.3 0 0 1 2.523.703zM407.732 363.485h15v1.344l-8.469 21.984h-3.297l7.97-20.671h-11.204v-2.657zM520.335 395.959c-1.5 0-2.68.4-3.54 1.203-.859.802-1.288 1.906-1.288 3.312 0 1.407.43 2.51 1.289 3.313.859.802 2.039 1.203 3.539 1.203s2.682-.404 3.547-1.211c.864-.807 1.296-1.909 1.296-3.305 0-1.406-.43-2.51-1.289-3.312s-2.044-1.203-3.554-1.203zm-3.157-1.344c-1.354-.333-2.408-.964-3.164-1.89-.755-.928-1.132-2.058-1.132-3.391 0-1.865.664-3.339 1.992-4.422 1.328-1.083 3.148-1.625 5.46-1.625 2.324 0 4.147.542 5.47 1.625 1.322 1.083 1.984 2.557 1.984 4.422 0 1.333-.378 2.463-1.133 3.39s-1.805 1.558-3.148 1.891c1.52.354 2.705 1.047 3.554 2.078.85 1.031 1.274 2.292 1.274 3.781 0 2.26-.69 3.995-2.07 5.203-1.38 1.209-3.357 1.813-5.93 1.813-2.573 0-4.55-.604-5.93-1.813-1.38-1.208-2.07-2.942-2.07-5.203 0-1.49.427-2.75 1.281-3.78.854-1.032 2.042-1.725 3.562-2.079zm-1.156-4.984c0 1.208.378 2.15 1.133 2.828.755.677 1.815 1.015 3.18 1.015 1.354 0 2.414-.338 3.18-1.015.765-.677 1.148-1.62 1.148-2.828 0-1.209-.383-2.151-1.149-2.829-.765-.677-1.825-1.015-3.18-1.015-1.364 0-2.424.338-3.179 1.015-.755.678-1.133 1.62-1.133 2.829zM574.288 501.527v-2.875c.791.375 1.593.662 2.406.86.812.197 1.61.296 2.39.296 2.084 0 3.675-.7 4.774-2.101 1.099-1.401 1.726-3.529 1.883-6.383a6.14 6.14 0 0 1-2.297 2.062c-.927.48-1.953.72-3.078.72-2.334 0-4.18-.706-5.54-2.118-1.359-1.411-2.038-3.341-2.038-5.789 0-2.396.708-4.318 2.125-5.766 1.416-1.448 3.302-2.171 5.656-2.172 2.698 0 4.758 1.034 6.18 3.102 1.421 2.068 2.132 5.07 2.132 9.008 0 3.677-.872 6.612-2.617 8.805-1.745 2.192-4.091 3.289-7.039 3.289a12.72 12.72 0 0 1-2.406-.235 17.2 17.2 0 0 1-2.531-.703zm6.28-9.89c1.418 0 2.54-.485 3.368-1.454.828-.968 1.242-2.296 1.242-3.984 0-1.677-.414-3.003-1.242-3.977-.828-.974-1.95-1.46-3.367-1.46s-2.54.486-3.367 1.46c-.828.974-1.243 2.3-1.243 3.977 0 1.688.415 3.016 1.243 3.984.828.97 1.95 1.454 3.367 1.453zM663.776 677.142h5.157v-17.797l-5.61 1.125v-2.875l5.578-1.125h3.157v20.672h5.156v2.656h-13.438v-2.656zm26.578-18.594c-1.625 0-2.846.8-3.664 2.399-.817 1.599-1.226 4.002-1.226 7.21 0 3.199.409 5.597 1.226 7.196.818 1.599 2.04 2.398 3.664 2.398 1.636 0 2.862-.799 3.68-2.398.818-1.599 1.227-3.997 1.227-7.195 0-3.209-.41-5.612-1.227-7.211-.818-1.6-2.044-2.399-3.68-2.399zm0-2.5c2.615 0 4.612 1.034 5.993 3.102 1.38 2.068 2.07 5.07 2.07 9.008 0 3.927-.69 6.924-2.07 8.992-1.38 2.068-3.378 3.101-5.993 3.101-2.614 0-4.612-1.033-5.992-3.101s-2.07-5.065-2.07-8.992c0-3.938.69-6.94 2.07-9.008 1.38-2.068 3.378-3.102 5.992-3.102zM669.756 921.599h5.156v-17.797l-5.61 1.125v-2.875l5.579-1.125h3.156V921.6h5.156v2.656h-13.437V921.6zm20.375 0h5.156v-17.797l-5.61 1.125v-2.875l5.579-1.125h3.156V921.6h5.156v2.656h-13.437V921.6zM578.842 778.157H584V760.36l-5.61 1.125v-2.875l5.578-1.125h3.157v20.672h5.156v2.657h-13.438v-2.657zm22.547 0h11.016v2.657h-14.813v-2.657c1.198-1.24 2.831-2.903 4.899-4.992 2.067-2.088 3.367-3.435 3.898-4.039 1.01-1.135 1.716-2.096 2.117-2.883.401-.786.602-1.56.602-2.32 0-1.24-.435-2.25-1.305-3.031-.87-.782-2.002-1.172-3.398-1.172-.99 0-2.034.172-3.133.515-1.099.344-2.274.865-3.524 1.563v-3.188c1.271-.51 2.459-.895 3.563-1.156 1.104-.26 2.115-.39 3.031-.39 2.417 0 4.344.604 5.782 1.812 1.437 1.208 2.156 2.823 2.156 4.844 0 .958-.18 1.867-.54 2.726-.359.86-1.012 1.873-1.96 3.04-.26.302-1.089 1.174-2.485 2.617-1.395 1.442-3.364 3.46-5.906 6.054zM530.355 701.386h5.156v-17.797l-5.61 1.125v-2.875l5.579-1.125h3.156v20.672h5.156v2.656h-13.437v-2.656zm29.39-9.922c1.511.323 2.69.995 3.54 2.016.849 1.02 1.273 2.28 1.273 3.78 0 2.303-.792 4.084-2.375 5.345-1.583 1.26-3.833 1.89-6.75 1.89-.98 0-1.987-.096-3.023-.289a21.915 21.915 0 0 1-3.211-.867v-3.047c.875.51 1.833.896 2.875 1.156 1.041.26 2.13.39 3.265.39 1.98 0 3.487-.39 4.524-1.171 1.036-.781 1.554-1.917 1.554-3.406 0-1.375-.481-2.45-1.445-3.227-.963-.776-2.305-1.164-4.023-1.164h-2.72v-2.594h2.845c1.552 0 2.74-.31 3.562-.93.823-.62 1.235-1.512 1.235-2.679 0-1.198-.425-2.117-1.274-2.758-.849-.64-2.065-.96-3.648-.96-.865 0-1.792.093-2.782.28-.99.188-2.078.48-3.265.876v-2.813a30.537 30.537 0 0 1 3.367-.75 18.882 18.882 0 0 1 2.96-.25c2.397 0 4.293.544 5.688 1.633 1.396 1.088 2.094 2.56 2.094 4.414 0 1.292-.37 2.383-1.11 3.273-.739.891-1.79 1.508-3.155 1.852zM429.3 576.107h5.155V558.31l-5.609 1.125v-2.875l5.578-1.125h3.156v20.672h5.157v2.656h-13.438v-2.656zm28.5-17.922l-7.97 12.453h7.97v-12.453zm-.829-2.75h3.969v15.203h3.328v2.625h-3.328v5.5h-3.14v-5.5h-10.532v-3.047l9.703-14.781zM259.593 561.985h5.157v-17.797l-5.61 1.125v-2.875l5.578-1.125h3.157v20.672h5.156v2.656h-13.438v-2.656zm19.86-20.672h12.39v2.656h-9.5v5.719a8.886 8.886 0 0 1 1.375-.352 8.172 8.172 0 0 1 1.375-.117c2.605 0 4.667.714 6.188 2.14 1.52 1.428 2.281 3.36 2.281 5.798 0 2.51-.781 4.46-2.344 5.851-1.562 1.39-3.765 2.086-6.609 2.086-.98 0-1.976-.083-2.992-.25a23.858 23.858 0 0 1-3.149-.75v-3.172c.938.51 1.907.89 2.907 1.14 1 .25 2.057.376 3.172.376 1.802 0 3.229-.474 4.28-1.422 1.053-.948 1.579-2.234 1.579-3.86 0-1.624-.526-2.91-1.578-3.859-1.052-.948-2.48-1.422-4.281-1.422-.844 0-1.685.094-2.524.282-.838.187-1.695.479-2.57.875v-11.72zM122.233 576.127h5.156V558.33l-5.61 1.125v-2.875l5.579-1.125h3.156v20.672h5.156v2.656h-13.437v-2.656zm26.969-10.266c-1.417 0-2.54.485-3.367 1.453-.829.97-1.243 2.297-1.243 3.985 0 1.677.414 3.002 1.243 3.976.828.974 1.95 1.461 3.367 1.461 1.416 0 2.539-.487 3.367-1.46.828-.975 1.242-2.3 1.242-3.977 0-1.688-.414-3.016-1.242-3.985-.828-.968-1.95-1.453-3.367-1.453zm6.265-9.89v2.875a12.615 12.615 0 0 0-2.398-.86 10.047 10.047 0 0 0-2.398-.297c-2.084 0-3.675.704-4.774 2.11-1.099 1.406-1.727 3.531-1.883 6.375a6.284 6.284 0 0 1 2.313-2.086c.927-.485 1.948-.727 3.062-.727 2.344 0 4.196.711 5.555 2.133 1.36 1.422 2.039 3.357 2.039 5.805 0 2.396-.708 4.317-2.125 5.765-1.417 1.448-3.302 2.172-5.656 2.172-2.698 0-4.76-1.034-6.188-3.101-1.427-2.068-2.14-5.065-2.14-8.993 0-3.687.875-6.627 2.625-8.82 1.75-2.193 4.099-3.289 7.047-3.289.791 0 1.59.078 2.398.234a17.3 17.3 0 0 1 2.523.704zM85.847 620.574h5.156v-17.797l-5.609 1.125v-2.875l5.578-1.125h3.156v20.672h5.157v2.656H85.847v-2.656zm19.031-20.672h15v1.343l-8.468 21.985h-3.297l7.969-20.672h-11.204v-2.656zM140.395 654.919h5.157v-17.797l-5.61 1.125v-2.875l5.578-1.125h3.157v20.672h5.156v2.656h-13.438v-2.656zm26.579-8.422c-1.5 0-2.68.4-3.54 1.203-.859.802-1.289 1.906-1.289 3.313 0 1.406.43 2.51 1.29 3.312.859.802 2.039 1.203 3.539 1.203s2.682-.404 3.546-1.21c.865-.808 1.297-1.91 1.297-3.305 0-1.407-.43-2.51-1.289-3.313-.86-.802-2.044-1.203-3.554-1.203zm-3.157-1.344c-1.354-.333-2.409-.963-3.164-1.89-.755-.928-1.133-2.058-1.133-3.391 0-1.865.665-3.339 1.993-4.422 1.328-1.083 3.148-1.625 5.46-1.625 2.323 0 4.146.542 5.47 1.625 1.322 1.083 1.984 2.557 1.984 4.422 0 1.333-.378 2.463-1.133 3.39-.755.928-1.805 1.558-3.149 1.891 1.521.354 2.706 1.047 3.555 2.078.85 1.032 1.274 2.292 1.274 3.782 0 2.26-.69 3.994-2.07 5.203-1.381 1.208-3.358 1.812-5.93 1.812-2.573 0-4.55-.604-5.93-1.812-1.38-1.209-2.07-2.943-2.07-5.203 0-1.49.427-2.75 1.28-3.782.855-1.031 2.042-1.724 3.563-2.078zm-1.156-4.984c0 1.208.378 2.15 1.133 2.828.755.677 1.815 1.016 3.18 1.016 1.354 0 2.414-.339 3.18-1.016.765-.677 1.148-1.62 1.148-2.828 0-1.209-.383-2.151-1.149-2.828-.765-.677-1.825-1.016-3.18-1.016-1.364 0-2.424.339-3.18 1.016-.754.677-1.132 1.62-1.132 2.828zM29.258 729.67h5.157v-17.797l-5.61 1.125v-2.875l5.578-1.125h3.157v20.672h5.156v2.656H29.258v-2.656z"/><path fill="#fff" fill-rule="evenodd" stroke="#000" stroke-linecap="square" stroke-width="3" d="M158.325 739.097c11.082-10.458-29.683-75.547-41.429-66.428-9.257 7.187 33.04 74.346 41.429 66.428z"/></svg>